<svg xmlns="http://www.w3.org/2000/svg" xmlns:xlink="http://www.w3.org/1999/xlink" width="234" zoomAndPan="magnify" viewBox="0 0 175.5 44.999999" height="60" preserveAspectRatio="xMidYMid meet" version="1.0"><defs><g/><clipPath id="8744e401f7"><path d="M 0 0.0625 L 175 0.0625 L 175 44.933594 L 0 44.933594 Z M 0 0.0625 " clip-rule="nonzero"/></clipPath></defs><g clip-path="url(#8744e401f7)"><path fill="#ffffff" d="M 0 0.0625 L 175.5 0.0625 L 175.5 52.5625 L 0 52.5625 Z M 0 0.0625 " fill-opacity="1" fill-rule="nonzero"/><path fill="#ffffff" d="M 0 0.0625 L 175.5 0.0625 L 175.5 45.0625 L 0 45.0625 Z M 0 0.0625 " fill-opacity="1" fill-rule="nonzero"/><path fill="#b5c327" d="M 0 0.0625 L 175.5 0.0625 L 175.5 45.0625 L 0 45.0625 Z M 0 0.0625 " fill-opacity="1" fill-rule="nonzero"/></g><g fill="#000000" fill-opacity="1"><g transform="translate(0.944064, 42.588931)"><g><path d="M 20.691406 0.605469 C 30.15625 0.605469 35.21875 -4.070312 35.21875 -13.589844 L 35.21875 -30.484375 C 35.21875 -34.941406 35.710938 -35.4375 38.847656 -35.988281 C 39.507812 -36.261719 40.058594 -36.757812 40.058594 -37.363281 C 40.058594 -38.1875 39.34375 -38.574219 38.023438 -38.574219 C 34.503906 -38.464844 32.742188 -38.519531 29.769531 -38.519531 C 28.394531 -38.519531 27.734375 -38.1875 27.734375 -37.308594 C 27.734375 -36.703125 28.285156 -36.207031 29 -35.933594 C 32.191406 -35.4375 32.578125 -34.941406 32.578125 -30.484375 L 32.578125 -13.097656 C 32.578125 -6.492188 28.722656 -2.75 21.625 -2.75 C 14.308594 -2.75 10.511719 -6.601562 10.511719 -13.8125 L 10.511719 -31.75 C 10.511719 -34.722656 10.839844 -35.273438 14.195312 -35.988281 C 14.859375 -36.207031 15.40625 -36.648438 15.40625 -37.308594 C 15.40625 -38.242188 14.914062 -38.519531 13.425781 -38.519531 C 9.851562 -38.519531 5.226562 -38.574219 2.585938 -38.574219 C 1.101562 -38.574219 0.660156 -38.132812 0.660156 -37.417969 C 0.660156 -36.703125 1.15625 -36.261719 1.871094 -35.988281 C 5.117188 -35.328125 5.449219 -34.777344 5.449219 -31.199219 L 5.449219 -13.425781 C 5.449219 -4.128906 10.621094 0.605469 20.691406 0.605469 Z M 20.691406 0.605469 "/></g></g></g><g fill="#000000" fill-opacity="1"><g transform="translate(38.611902, 34.844831)"><g><path d="M 7.933594 0 L 9.402344 0 L 9.402344 -5.757812 C 9.402344 -6.824219 9.109375 -7.683594 8.5625 -8.332031 C 8.269531 -8.667969 7.933594 -8.917969 7.539062 -9.109375 C 7.117188 -9.296875 6.59375 -9.402344 5.945312 -9.402344 C 5.277344 -9.402344 4.710938 -9.210938 4.207031 -8.878906 C 3.726562 -8.5625 3.328125 -8.144531 3.035156 -7.621094 L 3.035156 -9.210938 L 1.570312 -9.210938 L 1.570312 0 L 3.035156 0 L 3.035156 -3.851562 C 3.035156 -5.023438 3.246094 -5.945312 3.683594 -6.636719 C 3.9375 -7.015625 4.25 -7.328125 4.648438 -7.578125 C 5.023438 -7.808594 5.546875 -7.933594 6.175781 -7.933594 C 6.804688 -7.933594 7.246094 -7.703125 7.515625 -7.285156 C 7.789062 -6.867188 7.933594 -6.34375 7.933594 -5.757812 Z M 7.933594 0 "/></g></g></g><g fill="#000000" fill-opacity="1"><g transform="translate(49.267557, 34.844831)"><g><path d="M 3.058594 -12.394531 C 2.867188 -12.5625 2.636719 -12.667969 2.386719 -12.667969 C 2.136719 -12.667969 1.90625 -12.5625 1.738281 -12.394531 C 1.550781 -12.207031 1.464844 -11.976562 1.464844 -11.726562 C 1.464844 -11.472656 1.550781 -11.242188 1.738281 -11.074219 C 1.90625 -10.886719 2.136719 -10.804688 2.386719 -10.804688 C 2.636719 -10.804688 2.867188 -10.886719 3.058594 -11.074219 C 3.222656 -11.242188 3.328125 -11.472656 3.328125 -11.726562 C 3.328125 -11.976562 3.222656 -12.207031 3.058594 -12.394531 Z M 3.140625 0 L 3.140625 -9.210938 L 1.675781 -9.210938 L 1.675781 0 Z M 3.140625 0 "/></g></g></g><g fill="#000000" fill-opacity="1"><g transform="translate(54.06156, 34.844831)"><g><path d="M 4.460938 0.878906 L 8.6875 -9.210938 L 7.097656 -9.210938 L 4.460938 -2.367188 L 1.800781 -9.210938 L 0.210938 -9.210938 Z M 4.460938 0.878906 "/></g></g></g><g fill="#000000" fill-opacity="1"><g transform="translate(62.958715, 34.844831)"><g><path d="M 10.574219 -4.816406 C 10.574219 -6.070312 10.070312 -7.160156 9.109375 -8.101562 C 8.164062 -9.003906 7.035156 -9.464844 5.757812 -9.464844 C 4.417969 -9.464844 3.289062 -8.980469 2.34375 -8.039062 C 1.402344 -7.097656 0.941406 -5.96875 0.941406 -4.648438 C 0.941406 -3.308594 1.402344 -2.175781 2.34375 -1.257812 C 2.785156 -0.816406 3.289062 -0.480469 3.875 -0.230469 C 4.460938 0.0195312 5.152344 0.148438 5.96875 0.148438 C 6.785156 0.148438 7.578125 -0.105469 8.375 -0.605469 C 9.171875 -1.109375 9.757812 -1.820312 10.15625 -2.699219 L 8.480469 -2.699219 C 8.144531 -2.261719 7.746094 -1.925781 7.265625 -1.675781 C 6.785156 -1.421875 6.28125 -1.320312 5.757812 -1.320312 C 4.960938 -1.320312 4.25 -1.570312 3.621094 -2.09375 C 2.992188 -2.597656 2.597656 -3.246094 2.46875 -4.039062 L 10.574219 -4.039062 Z M 9.023438 -5.296875 L 2.492188 -5.296875 C 2.574219 -5.675781 2.722656 -6.03125 2.929688 -6.363281 C 3.601562 -7.453125 4.542969 -8 5.757812 -8 C 6.53125 -8 7.222656 -7.746094 7.832031 -7.246094 C 8.457031 -6.722656 8.835938 -6.070312 9.023438 -5.296875 Z M 9.023438 -5.296875 "/></g></g></g><g fill="#000000" fill-opacity="1"><g transform="translate(74.368015, 34.844831)"><g><path d="M 6.300781 -7.308594 L 6.300781 -9.210938 C 6.007812 -9.339844 5.695312 -9.402344 5.382812 -9.402344 C 4.335938 -9.402344 3.582031 -8.816406 3.097656 -7.683594 L 3.035156 -7.308594 L 3.035156 -9.210938 L 1.570312 -9.210938 L 1.570312 0 L 3.035156 0 L 3.035156 -4.605469 C 3.035156 -5.359375 3.203125 -6.03125 3.558594 -6.636719 C 3.726562 -6.953125 3.957031 -7.222656 4.230469 -7.433594 C 4.5 -7.640625 4.835938 -7.769531 5.214844 -7.769531 C 5.589844 -7.769531 5.945312 -7.601562 6.300781 -7.308594 Z M 6.300781 -7.308594 "/></g></g></g><g fill="#000000" fill-opacity="1"><g transform="translate(80.878648, 34.844831)"><g><path d="M 2.890625 -1.296875 C 2.535156 -1.550781 2.261719 -1.96875 2.113281 -2.574219 L 0.566406 -2.574219 C 0.878906 -0.671875 2.09375 0.273438 4.230469 0.273438 C 4.730469 0.273438 5.191406 0.230469 5.632812 0.105469 C 6.070312 -0.0195312 6.449219 -0.1875 6.804688 -0.417969 C 7.515625 -0.898438 7.871094 -1.632812 7.871094 -2.617188 C 7.871094 -3.621094 7.410156 -4.335938 6.449219 -4.792969 C 6.050781 -4.984375 5.609375 -5.128906 5.128906 -5.234375 C 4.667969 -5.339844 4.230469 -5.464844 3.832031 -5.589844 C 3.414062 -5.714844 3.078125 -5.882812 2.804688 -6.070312 C 2.535156 -6.261719 2.386719 -6.554688 2.386719 -6.972656 C 2.386719 -7.390625 2.554688 -7.703125 2.890625 -7.894531 C 3.222656 -8.101562 3.621094 -8.207031 4.0625 -8.207031 C 4.523438 -8.207031 4.921875 -8.101562 5.234375 -7.933594 C 5.546875 -7.769531 5.800781 -7.433594 5.945312 -6.929688 L 7.515625 -6.929688 C 7.328125 -7.851562 6.929688 -8.5 6.34375 -8.855469 C 5.738281 -9.234375 5.003906 -9.421875 4.105469 -9.421875 C 3.222656 -9.421875 2.449219 -9.171875 1.800781 -8.710938 C 1.171875 -8.226562 0.835938 -7.539062 0.835938 -6.617188 C 0.835938 -6.175781 0.964844 -5.777344 1.195312 -5.445312 C 1.445312 -5.085938 1.800781 -4.816406 2.261719 -4.605469 C 2.679688 -4.417969 3.121094 -4.269531 3.582031 -4.144531 C 4.039062 -4.039062 4.480469 -3.914062 4.898438 -3.789062 C 5.839844 -3.476562 6.324219 -3.015625 6.324219 -2.429688 C 6.324219 -1.421875 5.652344 -0.941406 4.3125 -0.941406 C 3.746094 -0.941406 3.265625 -1.046875 2.890625 -1.296875 Z M 2.890625 -1.296875 "/></g></g></g><g fill="#000000" fill-opacity="1"><g transform="translate(89.294316, 34.844831)"><g><path d="M 3.058594 -12.394531 C 2.867188 -12.5625 2.636719 -12.667969 2.386719 -12.667969 C 2.136719 -12.667969 1.90625 -12.5625 1.738281 -12.394531 C 1.550781 -12.207031 1.464844 -11.976562 1.464844 -11.726562 C 1.464844 -11.472656 1.550781 -11.242188 1.738281 -11.074219 C 1.90625 -10.886719 2.136719 -10.804688 2.386719 -10.804688 C 2.636719 -10.804688 2.867188 -10.886719 3.058594 -11.074219 C 3.222656 -11.242188 3.328125 -11.472656 3.328125 -11.726562 C 3.328125 -11.976562 3.222656 -12.207031 3.058594 -12.394531 Z M 3.140625 0 L 3.140625 -9.210938 L 1.675781 -9.210938 L 1.675781 0 Z M 3.140625 0 "/></g></g></g><g fill="#000000" fill-opacity="1"><g transform="translate(94.088319, 34.844831)"><g><path d="M 0.417969 -7.851562 L 2.722656 -7.851562 L 2.722656 0 L 4.1875 0 L 4.1875 -7.851562 L 6.46875 -7.851562 L 6.46875 -9.210938 L 4.1875 -9.210938 L 4.1875 -12.792969 L 2.722656 -12.792969 L 2.722656 -9.210938 L 0.417969 -9.210938 Z M 0.417969 -7.851562 "/></g></g></g><g fill="#000000" fill-opacity="1"><g transform="translate(100.975762, 34.844831)"><g><path d="M 2.742188 5.234375 L 9.109375 -9.210938 L 7.476562 -9.210938 L 4.835938 -3.035156 L 1.882812 -9.210938 L 0.210938 -9.210938 L 4.0625 -1.507812 L 0.964844 5.234375 Z M 2.742188 5.234375 "/></g></g></g><g fill="#000000" fill-opacity="1"><g transform="translate(108.314076, 42.588931)"><g><path d="M 3.796875 0.0546875 C 6.601562 0.0546875 13.648438 0.164062 18.324219 0.164062 C 28.667969 0.164062 33.730469 -4.511719 33.730469 -11.335938 C 33.730469 -17.71875 29.054688 -20.523438 25.753906 -21.460938 C 25.203125 -21.625 25.148438 -21.957031 25.699219 -22.230469 C 27.679688 -23.113281 30.539062 -25.203125 30.539062 -30.210938 C 30.539062 -34.996094 26.742188 -38.683594 18.269531 -38.683594 C 14.859375 -38.683594 6.546875 -38.519531 3.742188 -38.574219 C 2.199219 -38.574219 1.761719 -38.300781 1.761719 -37.363281 C 1.761719 -36.703125 2.199219 -36.261719 2.917969 -35.988281 C 6.164062 -35.328125 6.601562 -34.996094 6.601562 -32.136719 L 6.601562 -6.328125 C 6.601562 -3.6875 6.21875 -3.191406 2.972656 -2.53125 C 2.3125 -2.257812 1.761719 -1.816406 1.761719 -1.15625 C 1.761719 -0.21875 2.3125 0.0546875 3.796875 0.0546875 Z M 13.316406 -22.507812 C 11.664062 -22.507812 11.390625 -23 11.390625 -24.433594 L 11.390625 -34.0625 C 11.390625 -35.769531 11.832031 -36.316406 13.371094 -36.316406 L 17.882812 -36.316406 C 22.339844 -36.316406 25.367188 -33.84375 25.367188 -29.605469 C 25.367188 -25.148438 22.230469 -22.507812 17.773438 -22.507812 Z M 14.085938 -2.585938 C 12.160156 -2.585938 11.390625 -3.6875 11.390625 -5.832031 L 11.390625 -18.378906 C 11.390625 -19.589844 11.941406 -20.140625 13.8125 -20.140625 L 18.433594 -20.140625 C 24.320312 -20.140625 28.175781 -17.277344 28.175781 -11.722656 C 28.175781 -5.613281 23.660156 -2.585938 17.882812 -2.585938 Z M 14.085938 -2.585938 "/></g></g></g><g fill="#000000" fill-opacity="1"><g transform="translate(145.086314, 35.397305)"><g><path d="M 3.019531 0 L 3.019531 -15.609375 L 1.5625 -15.609375 L 1.5625 0 Z M 3.019531 0 "/></g></g></g><g fill="#000000" fill-opacity="1"><g transform="translate(149.66499, 35.397305)"><g><path d="M 9.054688 -4.621094 C 9.054688 -3.703125 8.71875 -2.933594 8.074219 -2.289062 C 7.410156 -1.625 6.640625 -1.3125 5.722656 -1.3125 C 4.808594 -1.3125 4.015625 -1.625 3.371094 -2.289062 C 2.707031 -2.933594 2.394531 -3.703125 2.394531 -4.621094 C 2.394531 -5.535156 2.707031 -6.304688 3.371094 -6.972656 C 4.015625 -7.617188 4.808594 -7.949219 5.722656 -7.949219 C 6.640625 -7.949219 7.410156 -7.617188 8.074219 -6.972656 C 8.71875 -6.304688 9.054688 -5.535156 9.054688 -4.621094 Z M 10.511719 -4.621094 C 10.511719 -5.933594 10.03125 -7.054688 9.09375 -7.992188 C 8.160156 -8.929688 7.035156 -9.40625 5.722656 -9.40625 C 4.390625 -9.40625 3.269531 -8.929688 2.332031 -7.992188 C 1.394531 -7.054688 0.9375 -5.933594 0.9375 -4.621094 C 0.9375 -3.289062 1.394531 -2.164062 2.332031 -1.25 C 3.269531 -0.3125 4.414062 0.144531 5.722656 0.144531 C 7.015625 0.144531 8.160156 -0.3125 9.09375 -1.25 C 10.03125 -2.164062 10.511719 -3.289062 10.511719 -4.621094 Z M 10.511719 -4.621094 "/></g></g></g><g fill="#000000" fill-opacity="1"><g transform="translate(161.111671, 35.397305)"><g><path d="M 8.96875 -4.578125 C 8.96875 -3.683594 8.660156 -2.894531 8.035156 -2.246094 C 7.410156 -1.582031 6.640625 -1.25 5.746094 -1.25 C 4.847656 -1.25 4.078125 -1.582031 3.453125 -2.246094 C 2.832031 -2.894531 2.519531 -3.664062 2.519531 -4.578125 C 2.519531 -5.472656 2.832031 -6.242188 3.453125 -6.910156 C 4.078125 -7.574219 4.847656 -7.910156 5.746094 -7.910156 C 6.640625 -7.910156 7.410156 -7.574219 8.035156 -6.910156 C 8.660156 -6.242188 8.96875 -5.453125 8.96875 -4.578125 Z M 2.476562 1.25 L 0.976562 1.25 C 1.144531 2.226562 1.582031 3.082031 2.332031 3.808594 C 3.246094 4.746094 4.371094 5.203125 5.683594 5.203125 C 6.972656 5.203125 8.097656 4.746094 9.03125 3.808594 C 9.949219 2.894531 10.425781 1.769531 10.425781 0.457031 L 10.425781 -9.15625 L 8.96875 -9.15625 L 8.96875 -7.617188 C 8.886719 -7.699219 8.804688 -7.804688 8.71875 -7.910156 C 7.804688 -8.867188 6.742188 -9.367188 5.535156 -9.367188 C 4.246094 -9.367188 3.183594 -8.867188 2.308594 -7.910156 C 1.476562 -6.953125 1.0625 -5.847656 1.0625 -4.578125 C 1.0625 -3.289062 1.476562 -2.183594 2.308594 -1.25 C 3.183594 -0.269531 4.246094 0.207031 5.535156 0.207031 C 6.785156 0.207031 7.847656 -0.269531 8.71875 -1.25 C 8.804688 -1.332031 8.886719 -1.4375 8.96875 -1.519531 L 8.96875 0.457031 C 8.96875 1.375 8.636719 2.144531 7.992188 2.789062 C 7.347656 3.433594 6.578125 3.746094 5.683594 3.746094 C 4.765625 3.746094 3.996094 3.433594 3.351562 2.789062 C 2.894531 2.332031 2.601562 1.832031 2.476562 1.25 Z M 2.476562 1.25 "/></g></g></g></svg>